<?xml version="1.0" encoding="utf-8"?>
<!-- Generator: Adobe Illustrator 19.0.0, SVG Export Plug-In . SVG Version: 6.00 Build 0)  -->
<svg version="1.1" id="Layer_1" xmlns="http://www.w3.org/2000/svg" xmlns:xlink="http://www.w3.org/1999/xlink" x="0px" y="0px"
	 viewBox="0 0 612 792" style="enable-background:new 0 0 612 792;" xml:space="preserve">
<style type="text/css">
	.st0{fill-rule:evenodd;clip-rule:evenodd;fill:#a9efff;}
</style>
<path id="XMLID_14_" class="st0" d="M285.1,537.3c5.4,0.3,10,1.1,14,2.4c25.6,7.7,39.5,1.4,49.2-23.1c15.4-39,30.4-78.2,45.6-117.3
	c5.1-13,10.2-26,15.4-39c8.3-20.7,3-32.5-19.1-41.1c-28.8-11.2-57.8-22-86.6-33.2c-24.3-9.4-48.5-19.1-72.8-28.7
	c-26.2-10.5-39-3.5-43.3,23.8c-4.8,29.9-9.4,59.7-14.2,89.5c-0.5,3.2,0.3,7.2-3.2,9.2c-3.1-1.9-1.8-4.7-1.6-6.9
	c2.3-34.4,4.5-68.7,7-103c2-26.2,19.4-39.6,45.6-33c21.1,5.3,41.9,13,62.7,20.3c37.8,13.2,75.6,26.7,113.4,40.2
	c8.8,3.1,17.3,6.9,24.8,12.8c18,14.1,23.8,33.9,14.4,53c-27,54.7-53.8,109.6-82,163.5C344.1,546.3,321.3,560.8,285.1,537.3"/>
<path id="XMLID_13_" class="st0" d="M289.7,529.6c-26.9-10-55.6-18.2-80.7-32.7c-4.3-2.5-22.3-14.3-27.4-26.2
	c-5.8-10.6-7.7-22.1-6.3-33.5c5.9-47.2,11.6-94.5,18.1-141.6c3.1-22.8,20.5-33.8,42.6-25.9c48.1,17.3,95.3,37.5,142.4,58
	c6.9,3,12.4,8.2,14.5,16.5c-11.4-11.7-25.8-15-39.7-19.5c-36.3-11.8-72.6-23.8-108.9-35.8c-22.1-7.3-28.6-3.2-31.7,19.7
	c-5.6,41.6-11,83.2-17.2,124.6l0,0c-13.1,55.9,97,78.8,106.7,81.6c10.6,3,17.2-1,22.3-9.1c10.7-17.1,17-36.7,26.1-54.7
	c6.2-12.4,12.2-25,18.3-37.4c0.7-1.5,1.8-2.8,6.2-1.1c-13.1,36.5-22.4,74.8-43.1,107.1C322.9,533.2,307.2,536.1,289.7,529.6"/>
</svg>
